<svg width="1483" height="608" viewBox="0 0 1483 608" fill="none" xmlns="http://www.w3.org/2000/svg">
<path d="M522.58 357.78V195.35C522.58 176.48 510 167.97 482.25 167.97V164.64L578.08 130.97L582.89 134.3C580.67 140.59 578.08 167.6 578.08 188.69V290.44L609.16 262.69C641.35 234.2 645.42 220.51 603.98 212V208.3H713.13V212C680.94 224.21 659.11 240.49 637.65 256.77L616.56 273.05L692.78 357.04C710.54 376.65 724.23 388.12 744.21 393.3V397H625.07V393.3C649.12 386.64 645.79 376.28 631.36 360.37L578.08 303.02V357.78C578.08 378.87 591.03 386.64 615.08 393.3V397H485.58V393.3C509.63 386.64 522.58 378.87 522.58 357.78ZM740.238 304.5C740.238 246.78 778.718 208.3 836.438 208.3C894.158 208.3 932.638 246.78 932.638 304.5C932.638 362.22 894.158 400.7 836.438 400.7C778.718 400.7 740.238 362.22 740.238 304.5ZM807.208 328.18C833.478 359.63 859.748 377.02 878.248 377.02C883.798 377.02 888.978 375.17 893.048 371.84C910.808 357.41 898.598 320.78 864.558 279.71C838.658 248.63 812.388 231.61 793.888 231.61C788.338 231.61 783.528 233.09 779.828 236.42C761.698 251.22 773.538 288.22 807.208 328.18ZM1124.65 284.89L989.225 277.49C1001.44 313.75 1039.55 358.89 1080.25 358.89C1100.6 358.89 1118.73 347.79 1129.46 325.22H1133.16C1121.32 372.95 1090.24 400.7 1053.24 400.7C995.515 400.7 957.035 362.22 957.035 304.5C957.035 246.78 995.515 208.3 1053.24 208.3C1082.1 208.3 1127.24 222.73 1127.24 282.3L1124.65 284.89ZM986.635 268.24L1076.18 263.8C1065.82 240.86 1040.66 227.54 1019.57 227.54C1010.32 227.54 1001.81 230.13 995.515 235.68C985.895 243.82 984.045 255.66 986.635 268.24ZM1183.45 357.78V195.35C1183.45 176.48 1170.87 167.97 1143.12 167.97V164.64L1238.95 130.97L1243.76 134.3C1241.54 140.59 1238.95 167.6 1238.95 188.69V357.78C1238.95 378.87 1251.9 386.64 1275.95 393.3V397H1146.45V393.3C1170.5 386.64 1183.45 378.87 1183.45 357.78Z" fill="#27645F"/>
<path d="M355.376 257.469C355.29 272.518 352.316 286.894 346.983 300.074C357.719 302.658 367.489 308.556 374.843 317.11C378.304 321.137 377.846 327.208 373.819 330.67C369.793 334.131 363.723 333.674 360.26 329.646C354.523 322.972 346.485 318.835 337.837 317.995C332.259 326.913 325.504 335.022 317.786 342.098H339.44C344.75 342.098 349.055 346.403 349.055 351.714C349.055 357.024 344.75 361.329 339.44 361.329H302.074C306.229 375.343 319.216 385.598 334.561 385.598C344.437 385.598 353.804 381.291 360.26 373.78C363.722 369.754 369.793 369.296 373.82 372.757C377.846 376.219 378.305 382.289 374.843 386.316C364.729 398.081 350.047 404.828 334.561 404.828C309.55 404.828 288.536 387.447 282.927 364.133C269.746 369.468 255.368 372.442 240.317 372.529C249.861 415.773 288.489 448.226 334.561 448.226C387.779 448.226 431.074 404.93 431.074 351.714C431.074 305.642 398.621 267.013 355.376 257.469Z" fill="#27645F"/>
<path d="M336.155 256.786C336.155 203.568 292.86 160.273 239.643 160.273C186.426 160.273 143.13 203.569 143.13 256.786C143.13 310.002 186.425 353.298 239.642 353.298C292.859 353.298 336.155 310.003 336.155 256.786ZM230.027 306.932V305.022H220.332C215.022 305.022 210.717 300.717 210.717 295.407C210.717 290.097 215.022 285.792 220.332 285.792H239.642C244.988 285.792 249.338 281.443 249.338 276.097C249.338 270.751 244.988 266.401 239.642 266.401C223.693 266.401 210.717 253.425 210.717 237.476C210.717 224.896 218.791 214.172 230.027 210.199V206.64C230.027 201.33 234.332 197.025 239.642 197.025C244.952 197.025 249.257 201.33 249.257 206.64V208.55H258.953C264.263 208.55 268.568 212.855 268.568 218.165C268.568 223.475 264.263 227.78 258.953 227.78H239.642C234.296 227.78 229.947 232.13 229.947 237.476C229.947 242.822 234.296 247.171 239.642 247.171C255.592 247.171 268.568 260.147 268.568 276.097C268.568 288.676 260.494 299.4 249.257 303.373V306.933C249.257 312.243 244.952 316.548 239.642 316.548C234.332 316.548 230.027 312.242 230.027 306.932Z" fill="#27645F"/>
<path d="M245.491 441.668C210.846 431.188 179.379 405.024 160.373 371.676L166.641 373.784C171.675 375.479 177.127 372.77 178.82 367.736C180.513 362.703 177.806 357.25 172.773 355.557L145.019 346.222C139.985 344.531 134.533 347.238 132.839 352.271L123.504 380.024C121.811 385.058 124.519 390.51 129.552 392.203C130.569 392.545 131.602 392.707 132.619 392.707C136.634 392.707 140.38 390.171 141.731 386.155L143.499 380.898C152.43 396.631 163.94 411.173 177.371 423.597C195.816 440.661 217.447 453.275 239.922 460.074C240.851 460.354 241.788 460.488 242.71 460.488C246.838 460.488 250.654 457.808 251.91 453.654C253.448 448.573 250.573 443.205 245.491 441.668Z" fill="#27645F"/>
<path d="M444.651 216.286C439.62 214.594 434.166 217.301 432.472 222.335L430.702 227.598C421.722 211.777 410.137 197.158 396.617 184.692C378.221 167.731 356.666 155.187 334.281 148.415C329.197 146.876 323.83 149.751 322.293 154.834C320.756 159.917 323.63 165.284 328.712 166.822C363.321 177.291 394.81 203.472 413.821 236.811L407.562 234.705C402.529 233.011 397.077 235.72 395.383 240.753C393.69 245.787 396.398 251.239 401.431 252.932L429.185 262.268C430.202 262.609 431.235 262.772 432.252 262.772C436.267 262.772 440.012 260.236 441.364 256.219L450.699 228.465C452.392 223.431 449.684 217.979 444.651 216.286Z" fill="#27645F"/>
</svg>
